<?xml version="1.0" encoding="iso-8859-1"?>
<!-- Uploaded to: SVG Repo, www.svgrepo.com, Generator: SVG Repo Mixer Tools -->
<svg fill="#000000" height="800px" width="800px" version="1.1" id="Layer_1" xmlns="http://www.w3.org/2000/svg" xmlns:xlink="http://www.w3.org/1999/xlink" 
	 viewBox="0 0 496 496" xml:space="preserve">
<g>
	<g>
		<g>
			<path d="M496,72c0-22.056-17.944-40-40-40h-8c0-17.648-14.352-32-32-32s-32,14.352-32,32H112c0-17.648-14.352-32-32-32
				S48,14.352,48,32h-8C17.944,32,0,49.944,0,72v272c0,16.032,9.608,30.248,24,36.52v31.576c0,3.664-2.336,6.904-5.816,8.072
				C7.312,423.8,0,433.936,0,445.408C0,460.072,11.928,472,26.592,472h24.896C57.76,486.384,71.984,496,88,496
				s30.24-9.616,36.512-24h24.896C164.072,472,176,460.072,176,445.408c0-11.472-7.312-21.608-18.192-25.24
				c-3.472-1.16-5.808-4.4-5.808-8.064V384h171.408c-2.168,7.64-3.408,15.672-3.408,24c0,48.52,39.48,88,88,88
				c48.52,0,88-39.48,88-88c0-13.944-3.344-27.096-9.144-38.824C492.696,362.064,496,353.2,496,344V72z M400,32
				c0-8.816,7.176-16,16-16c8.816,0,16,7.184,16,16v16c0,8.816-7.184,16-16,16c-8.824,0-16-7.184-16-16V32z M64,32
				c0-8.816,7.176-16,16-16c8.816,0,16,7.184,16,16v16c0,8.816-7.184,16-16,16c-8.824,0-16-7.184-16-16V32z M88,480
				c-6.944,0-13.312-3.048-17.736-8h35.48C101.312,476.952,94.944,480,88,480z M152.752,435.344
				c4.336,1.448,7.248,5.488,7.248,10.064c0,5.84-4.752,10.592-10.592,10.592H26.592C20.752,456,16,451.248,16,445.408
				c0-4.568,2.912-8.616,7.24-10.056C33.264,432.008,40,422.672,40,412.104V376c0-26.472,21.528-48,48-48s48,21.528,48,48v36.104
				C136,422.672,142.736,432.008,152.752,435.344z M80.056,312.544v-48.576c0-4.392,3.576-7.968,7.976-7.968
				c4.392,0,7.968,3.576,7.968,7.968v48.584c-2.624-0.328-5.288-0.552-8-0.552C85.304,312,82.664,312.224,80.056,312.544z M408,480
				c-39.704,0-72-32.296-72-72c0-39.704,32.296-72,72-72c39.704,0,72,32.296,72,72C480,447.704,447.704,480,408,480z M392,321.528
				V304h32v17.528c-5.2-0.96-10.528-1.528-16-1.528S397.2,320.568,392,321.528z M480,344c0,3.64-0.872,7.12-2.44,10.304
				c-9.68-12.512-22.608-22.328-37.56-28.192V304c0-8.824-7.184-16-16-16h-8V128h-16v160h-8c-8.824,0-16,7.176-16,16v22.112
				c-20.056,7.864-36.52,22.856-46.288,41.888H151.44c-2.928-23.304-18.392-42.736-39.44-51.288v-52.744
				C112,250.752,101.248,240,88.032,240s-23.976,10.752-23.976,23.968v52.72c-19.504,7.904-34.264,25.128-38.68,46.136
				C19.632,358.4,16,351.56,16,344V112h464V344z M480,96H16V72c0-13.232,10.768-24,24-24h8c0,17.648,14.352,32,32,32
				s32-14.352,32-32h272c0,17.648,14.352,32,32,32s32-14.352,32-32h8c13.232,0,24,10.768,24,24V96z"/>
			<path d="M232,280h-80v-10.584l80-32V216c0-26.472-21.528-48-48-48s-48,21.528-48,48v16h16v-16c0-17.648,14.352-32,32-32
				s32,14.352,32,32v10.584l-80,32V296h96V280z"/>
			<path d="M360,256c0-22.056-17.944-40-40-40h-40v-32h64v-16h-80v64h56c13.232,0,24,10.768,24,24s-10.768,24-24,24h-56v16h56
				C342.056,296,360,278.056,360,256z"/>
			<path d="M352,408h16c0-22.056,17.944-40,40-40v-16C377.128,352,352,377.128,352,408z"/>
			<path d="M56,376v24h16v-24c0-8.824,7.176-16,16-16v-16C70.352,344,56,358.352,56,376z"/>
		</g>
	</g>
</g>
</svg>